HIERARCHY
ROOT Hips
{
    OFFSET 0.000000 0.000000 0.000000
    CHANNELS 6 Xposition Yposition Zposition Zrotation Xrotation Yrotation
    JOINT Spine
    {
        OFFSET -0.000000 0.068295 0.000000
        CHANNELS 3 Zrotation Xrotation Yrotation
        JOINT Spine1
        {
            OFFSET -0.000000 0.198479 0.000000
            CHANNELS 3 Zrotation Xrotation Yrotation
            JOINT Neck
            {
                OFFSET -0.000000 0.215136 0.000000
                CHANNELS 3 Zrotation Xrotation Yrotation
                JOINT Head
                {
                    OFFSET -0.000000 0.090366 0.016657
                    CHANNELS 3 Zrotation Xrotation Yrotation
                    End Site
                    {
                        OFFSET -0.000000 0.166573 0.000000
                    }
                }
            }
            JOINT LeftShoulder
            {
                OFFSET 0.033522 0.175145 -0.001055
                CHANNELS 3 Zrotation Xrotation Yrotation
                JOINT LeftArm
                {
                    OFFSET 0.121214 0.000000 0.000000
                    CHANNELS 3 Zrotation Xrotation Yrotation
                    JOINT LeftForeArm
                    {
                        OFFSET 0.261115 0.000000 0.000000
                        CHANNELS 3 Zrotation Xrotation Yrotation
                        JOINT LeftHand
                        {
                            OFFSET 0.230096 0.000000 0.000000
                            CHANNELS 3 Zrotation Xrotation Yrotation
                            End Site
                            {
                                OFFSET 0.000000 -0.124930 0.000000
                            }
                        }
                    }
                }
            }
            JOINT RightShoulder
            {
                OFFSET -0.033103 0.175145 -0.001055
                CHANNELS 3 Zrotation Xrotation Yrotation
                JOINT RightArm
                {
                    OFFSET -0.121214 0.000000 0.000000
                    CHANNELS 3 Zrotation Xrotation Yrotation
                    JOINT RightForeArm
                    {
                        OFFSET -0.261115 0.000000 0.000000
                        CHANNELS 3 Zrotation Xrotation Yrotation
                        JOINT RightHand
                        {
                            OFFSET -0.230096 0.000000 0.000000
                            CHANNELS 3 Zrotation Xrotation Yrotation
                            End Site
                            {
                                OFFSET -0.000000 -0.124930 0.000000
                            }
                        }
                    }
                }
            }
        }
    }
    JOINT LeftUpLeg
    {
        OFFSET 0.083287 0.000000 0.000000
        CHANNELS 3 Zrotation Xrotation Yrotation
        JOINT LeftLeg
        {
            OFFSET -0.000000 -0.281128 0.000000
            CHANNELS 3 Zrotation Xrotation Yrotation
            JOINT LeftFoot
            {
                OFFSET -0.000000 -0.491911 0.000000
                CHANNELS 3 Zrotation Xrotation Yrotation
                JOINT LeftToeBase
                {
                    OFFSET -0.000000 -0.054136 0.124930
                    CHANNELS 3 Zrotation Xrotation Yrotation
                    End Site
                    {
                        OFFSET -0.000000 0.000000 0.033315
                    }
                }
            }
        }
    }
    JOINT RightUpLeg
    {
        OFFSET -0.083287 0.000000 0.000000
        CHANNELS 3 Zrotation Xrotation Yrotation
        JOINT RightLeg
        {
            OFFSET -0.000000 -0.281128 0.000000
            CHANNELS 3 Zrotation Xrotation Yrotation
            JOINT RightFoot
            {
                OFFSET -0.000000 -0.491911 0.000000
                CHANNELS 3 Zrotation Xrotation Yrotation
                JOINT RightToeBase
                {
                    OFFSET -0.000000 -0.054136 0.124930
                    CHANNELS 3 Zrotation Xrotation Yrotation
                    End Site
                    {
                        OFFSET -0.000000 0.000000 0.033315
                    }
                }
            }
        }
    }
}
MOTION
Frames:    5
Frame Time:    0.010000
0.232219    0.808409    0.079261    -1.347653    2.264856    -94.948753    1.097549    5.541263    16.896040    -11.863055    4.344920    6.099278    0.185260    -12.120475    -14.423045    3.069241    11.211938    -15.564342    6.541636    -8.903419    -2.115218    -0.116381    42.822002    -83.424690    95.281563    -50.922726    -47.541672    107.900848    -3.021659    -0.549336    -8.364925    -3.865145    18.887403    21.883799    12.879932    4.783113    -8.296234    -33.858776    -5.669754    -94.898590    -8.301070    -34.555466    -2.302456    -14.858151    -7.487344    -1.132883    28.085718    -10.095944    6.491277    -9.969378    47.994232    0.000000    0.000000    0.000000    3.961333    13.840727    -16.390972    0.652821    12.494957    -13.338032    -4.697616    -10.819390    -40.511261    0.000000    0.000000    0.000000    
0.231682    0.809442    0.079517    -1.121943    2.256458    -95.052544    1.770992    5.597239    17.942635    -12.662975    4.150241    6.468682    -0.001109    -12.386553    -14.632512    2.293916    11.575104    -15.620667    6.826138    -8.997910    -2.063338    0.345213    43.108318    -84.215927    96.879959    -50.708233    -45.898659    107.859604    -2.552019    -0.152524    -8.568382    -3.998729    20.036358    20.480980    14.727111    6.981444    -8.296234    -33.858776    -5.669754    -94.898590    -8.301070    -34.555466    -2.210393    -14.788463    -7.416226    -1.359590    27.657663    -9.694931    6.504544    -9.352432    48.343636    0.000000    0.000000    0.000000    3.994692    13.535209    -16.693022    0.570517    12.508279    -13.286913    -4.633876    -10.387928    -40.860184    0.000000    0.000000    0.000000    
0.231130    0.810690    0.079430    -0.762985    2.213131    -95.022179    2.268073    5.520538    18.982300    -13.208785    3.881213    6.812629    0.449009    -13.460256    -15.028950    -0.385117    13.295240    -15.419948    6.734071    -9.603354    -2.252669    -0.232979    43.689659    -83.998329    96.913101    -50.917435    -46.129639    108.066612    -2.728644    -0.229492    -9.082859    -3.779082    20.909243    18.925762    17.507971    9.758593    -8.296234    -33.858776    -5.669754    -94.898590    -8.301070    -34.555466    -2.145599    -14.862591    -7.407797    -1.552491    27.227272    -9.392196    7.026988    -8.661407    49.478100    0.000000    0.000000    0.000000    4.024783    13.086823    -17.049496    0.519255    12.544803    -13.308395    -4.702403    -9.776306    -41.390263    0.000000    0.000000    0.000000    
0.230462    0.812203    0.079122    -0.315340    2.268752    -94.739700    2.819542    5.393963    19.888102    -13.846790    3.591104    7.109335    0.720211    -14.120842    -15.435540    -1.702026    14.203674    -15.514656    6.943404    -9.716564    -2.303751    -1.223289    43.564659    -83.765724    96.161423    -51.059109    -47.175411    108.040665    -1.935631    -0.990788    -9.434033    -4.012609    21.324274    16.804928    22.060308    13.285913    -8.296234    -33.858776    -5.669754    -94.898590    -8.301070    -34.555466    -2.057987    -14.985909    -7.575835    -1.686916    26.727255    -9.026222    6.710869    -8.108561    49.591991    0.000000    0.000000    0.000000    4.315674    12.718105    -17.529701    0.436023    12.301163    -13.397133    -4.598847    -9.197777    -41.791771    0.000000    0.000000    0.000000    
0.229328    0.813863    0.078617    0.083632    2.373346    -94.143028    3.325787    5.323260    20.548912    -14.334326    3.112077    7.292260    -0.474071    -12.046509    -16.038057    1.175239    11.462942    -16.830706    7.021605    -9.616940    -2.347452    -1.708879    43.505211    -83.764046    96.009003    -51.291973    -47.625206    107.785088    -2.176809    -1.173034    -9.540135    -4.199637    21.582703    14.527264    25.821564    16.390348    -8.296234    -33.858776    -5.669754    -94.898590    -8.301070    -34.555466    -1.893366    -15.002432    -8.061301    -2.085959    26.160210    -8.432981    5.978312    -7.328787    49.136749    0.000000    0.000000    0.000000    4.778343    12.557448    -18.296133    0.331111    11.848698    -13.524900    -4.466325    -8.425045    -42.354599    0.000000    0.000000    0.000000    
